<svg width="105" height="42" viewBox="0 0 105 42" fill="#e34d0a" xmlns="http://www.w3.org/2000/svg">
<path d="M49.86 11.256C50.232 11.256 50.652 11.286 51.12 11.346C51.6 11.394 52.05 11.502 52.47 11.67C52.902 11.826 53.268 12.054 53.568 12.354C53.868 12.642 54.03 13.026 54.054 13.506C54.066 13.818 54.06 14.136 54.036 14.46C54.012 14.772 53.988 15.084 53.964 15.396C53.952 15.708 53.946 16.02 53.946 16.332C53.958 16.644 54.006 16.956 54.09 17.268C54.186 17.652 54.33 18.03 54.522 18.402C54.726 18.774 54.924 19.152 55.116 19.536C55.32 19.908 55.494 20.286 55.638 20.67C55.782 21.054 55.854 21.444 55.854 21.84C55.854 22.188 55.812 22.548 55.728 22.92C55.656 23.28 55.488 23.58 55.224 23.82C55.008 24.024 54.75 24.198 54.45 24.342C54.15 24.486 53.85 24.558 53.55 24.558C53.286 24.558 53.004 24.504 52.704 24.396C52.416 24.288 52.182 24.132 52.002 23.928C51.882 23.796 51.798 23.64 51.75 23.46C51.714 23.268 51.684 23.076 51.66 22.884C51.648 22.692 51.63 22.5 51.606 22.308C51.594 22.116 51.552 21.948 51.48 21.804C51.42 21.648 51.312 21.522 51.156 21.426C51.012 21.33 50.802 21.282 50.526 21.282C50.274 21.282 50.076 21.336 49.932 21.444C49.788 21.54 49.716 21.726 49.716 22.002C49.716 22.158 49.728 22.314 49.752 22.47C49.776 22.614 49.788 22.764 49.788 22.92C49.788 23.16 49.704 23.358 49.536 23.514C49.368 23.67 49.158 23.796 48.906 23.892C48.666 23.988 48.414 24.054 48.15 24.09C47.886 24.138 47.658 24.162 47.466 24.162C47.178 24.162 46.89 24.114 46.602 24.018C46.326 23.934 46.08 23.802 45.864 23.622C45.648 23.442 45.474 23.22 45.342 22.956C45.21 22.692 45.144 22.392 45.144 22.056C45.144 21.972 45.156 21.894 45.18 21.822C45.204 21.738 45.228 21.654 45.252 21.57C45.54 20.778 45.864 19.992 46.224 19.212C46.596 18.432 46.89 17.64 47.106 16.836C47.202 16.452 47.262 16.074 47.286 15.702C47.322 15.318 47.352 14.94 47.376 14.568C47.4 14.184 47.436 13.806 47.484 13.434C47.532 13.05 47.622 12.678 47.754 12.318C47.838 12.102 47.952 11.928 48.096 11.796C48.252 11.652 48.426 11.544 48.618 11.472C48.81 11.388 49.014 11.334 49.23 11.31C49.446 11.274 49.656 11.256 49.86 11.256ZM49.698 17.934C49.698 17.994 49.728 18.048 49.788 18.096C49.86 18.132 49.938 18.162 50.022 18.186C50.106 18.198 50.19 18.21 50.274 18.222C50.358 18.222 50.424 18.222 50.472 18.222C50.532 18.222 50.622 18.216 50.742 18.204C50.862 18.18 50.982 18.15 51.102 18.114C51.234 18.078 51.342 18.03 51.426 17.97C51.522 17.91 51.57 17.838 51.57 17.754C51.57 17.634 51.558 17.454 51.534 17.214C51.51 16.974 51.468 16.734 51.408 16.494C51.348 16.254 51.264 16.044 51.156 15.864C51.06 15.684 50.934 15.594 50.778 15.594C50.61 15.594 50.46 15.684 50.328 15.864C50.196 16.044 50.082 16.26 49.986 16.512C49.89 16.764 49.818 17.022 49.77 17.286C49.722 17.55 49.698 17.766 49.698 17.934ZM56.2919 17.808C56.2919 16.692 56.3759 15.75 56.5439 14.982C56.7239 14.202 57.0119 13.572 57.4079 13.092C57.8159 12.612 58.3439 12.27 58.9919 12.066C59.6399 11.85 60.4379 11.742 61.3859 11.742C61.9859 11.742 62.5199 11.856 62.9879 12.084C63.4679 12.3 63.8759 12.582 64.2119 12.93C64.5479 13.278 64.8059 13.668 64.9859 14.1C65.1659 14.532 65.2559 14.958 65.2559 15.378C65.2559 15.57 65.2199 15.768 65.1479 15.972C65.0879 16.176 64.9919 16.368 64.8599 16.548C64.7399 16.716 64.5959 16.854 64.4279 16.962C64.2599 17.07 64.0679 17.124 63.8519 17.124C63.4799 17.124 63.1799 17.07 62.9519 16.962C62.7239 16.854 62.5379 16.722 62.3939 16.566C62.2619 16.398 62.1539 16.218 62.0699 16.026C61.9979 15.834 61.9199 15.66 61.8359 15.504C61.7519 15.336 61.6499 15.198 61.5299 15.09C61.4099 14.982 61.2479 14.928 61.0439 14.928C60.5279 14.928 60.1079 15.138 59.7839 15.558C59.4599 15.966 59.2979 16.56 59.2979 17.34C59.2979 17.952 59.5139 18.39 59.9459 18.654C60.3779 18.906 60.9779 19.032 61.7459 19.032C61.9859 19.032 62.2259 19.014 62.4659 18.978C62.7179 18.942 62.9639 18.924 63.2039 18.924C63.5639 18.924 63.8699 18.942 64.1219 18.978C64.3859 19.014 64.6019 19.092 64.7699 19.212C64.9379 19.32 65.0579 19.488 65.1299 19.716C65.2139 19.932 65.2559 20.22 65.2559 20.58C65.2559 20.976 65.2079 21.39 65.1119 21.822C65.0279 22.254 64.8419 22.65 64.5539 23.01C64.2659 23.358 63.8399 23.652 63.2759 23.892C62.7239 24.12 61.9799 24.234 61.0439 24.234C60.0719 24.234 59.2739 24.054 58.6499 23.694C58.0379 23.334 57.5519 22.86 57.1919 22.272C56.8439 21.672 56.6039 20.988 56.4719 20.22C56.3519 19.44 56.2919 18.636 56.2919 17.808ZM69.7115 14.946C69.7115 15.102 69.7175 15.204 69.7295 15.252C69.7535 15.3 69.8075 15.324 69.8915 15.324C69.9275 15.324 70.0115 15.282 70.1435 15.198C70.2755 15.114 70.4315 15.024 70.6115 14.928C70.7915 14.832 70.9895 14.742 71.2055 14.658C71.4335 14.574 71.6555 14.532 71.8715 14.532C72.2195 14.532 72.5315 14.55 72.8075 14.586C73.0955 14.622 73.3475 14.688 73.5635 14.784C73.7915 14.88 73.9895 15.024 74.1575 15.216C74.3255 15.396 74.4695 15.642 74.5895 15.954C74.6735 16.17 74.7215 16.368 74.7335 16.548C74.7575 16.728 74.7695 16.914 74.7695 17.106C74.7695 17.298 74.7695 17.496 74.7695 17.7C74.7695 17.904 74.7875 18.144 74.8235 18.42C74.8715 18.804 74.9495 19.146 75.0575 19.446C75.1775 19.746 75.2915 20.028 75.3995 20.292C75.5195 20.556 75.6215 20.826 75.7055 21.102C75.8015 21.366 75.8495 21.666 75.8495 22.002C75.8495 22.338 75.8015 22.65 75.7055 22.938C75.6095 23.214 75.4715 23.454 75.2915 23.658C75.1235 23.862 74.9195 24.018 74.6795 24.126C74.4395 24.246 74.1755 24.306 73.8875 24.306C72.9035 24.306 72.1715 24.108 71.6915 23.712C71.2235 23.304 70.9895 22.656 70.9895 21.768C70.9895 21.516 71.0375 21.246 71.1335 20.958C71.2415 20.658 71.3555 20.364 71.4755 20.076C71.5955 19.776 71.7035 19.482 71.7995 19.194C71.9075 18.894 71.9615 18.612 71.9615 18.348C71.9615 18.12 71.8715 17.904 71.6915 17.7C71.5235 17.484 71.2775 17.376 70.9535 17.376C70.8095 17.376 70.6595 17.406 70.5035 17.466C70.3475 17.526 70.2035 17.604 70.0715 17.7C69.9515 17.784 69.8495 17.886 69.7655 18.006C69.6815 18.114 69.6395 18.222 69.6395 18.33C69.6395 18.582 69.6815 18.852 69.7655 19.14C69.8615 19.428 69.9575 19.716 70.0535 20.004C70.1615 20.292 70.2575 20.58 70.3415 20.868C70.4375 21.156 70.4855 21.438 70.4855 21.714C70.4855 22.074 70.4255 22.416 70.3055 22.74C70.1975 23.052 70.0355 23.328 69.8195 23.568C69.6155 23.796 69.3635 23.976 69.0635 24.108C68.7635 24.252 68.4215 24.324 68.0375 24.324C67.6295 24.324 67.2815 24.258 66.9935 24.126C66.7055 23.994 66.4655 23.814 66.2735 23.586C66.0935 23.346 65.9615 23.07 65.8775 22.758C65.7935 22.446 65.7515 22.104 65.7515 21.732C65.7515 21.3 65.8055 20.874 65.9135 20.454C66.0215 20.034 66.1415 19.614 66.2735 19.194C66.4055 18.762 66.5255 18.336 66.6335 17.916C66.7415 17.496 66.7955 17.076 66.7955 16.656C66.7955 16.332 66.7715 15.996 66.7235 15.648C66.6755 15.3 66.6215 14.946 66.5615 14.586C66.5015 14.214 66.4475 13.842 66.3995 13.47C66.3515 13.098 66.3275 12.726 66.3275 12.354C66.3275 12.006 66.3515 11.682 66.3995 11.382C66.4595 11.07 66.5615 10.8 66.7055 10.572C66.8615 10.344 67.0655 10.164 67.3175 10.032C67.5815 9.9 67.9175 9.834 68.3255 9.834C68.6015 9.834 68.8775 9.87 69.1535 9.942C69.4295 10.002 69.6755 10.104 69.8915 10.248C70.1195 10.392 70.3055 10.578 70.4495 10.806C70.5935 11.022 70.6655 11.286 70.6655 11.598C70.6655 11.814 70.6115 12.09 70.5035 12.426C70.4075 12.75 70.2995 13.08 70.1795 13.416C70.0715 13.752 69.9635 14.064 69.8555 14.352C69.7595 14.64 69.7115 14.838 69.7115 14.946ZM77.7727 11.184C78.1927 11.184 78.5287 11.232 78.7807 11.328C79.0327 11.412 79.2427 11.508 79.4107 11.616C79.5907 11.724 79.7347 11.826 79.8427 11.922C79.9627 12.006 80.0887 12.048 80.2207 12.048C80.3887 12.048 80.5507 12.012 80.7067 11.94C80.8627 11.856 81.0127 11.766 81.1567 11.67C81.3007 11.562 81.4447 11.472 81.5887 11.4C81.7327 11.316 81.8827 11.274 82.0387 11.274C82.3987 11.274 82.7707 11.334 83.1547 11.454C83.5387 11.562 83.8807 11.724 84.1807 11.94C84.4927 12.156 84.7447 12.426 84.9367 12.75C85.1407 13.062 85.2427 13.422 85.2427 13.83C85.2427 14.694 85.0627 15.36 84.7027 15.828C84.3427 16.296 83.7667 16.53 82.9747 16.53C82.7947 16.53 82.6387 16.482 82.5067 16.386C82.3747 16.29 82.2427 16.188 82.1107 16.08C81.9907 15.96 81.8647 15.852 81.7327 15.756C81.6127 15.66 81.4687 15.612 81.3007 15.612C81.1207 15.612 80.9407 15.654 80.7607 15.738C80.5927 15.822 80.4427 15.93 80.3107 16.062C80.1907 16.182 80.0887 16.326 80.0047 16.494C79.9327 16.65 79.8967 16.812 79.8967 16.98C79.8967 17.376 79.9747 17.79 80.1307 18.222C80.2987 18.654 80.4787 19.092 80.6707 19.536C80.8747 19.968 81.0547 20.4 81.2107 20.832C81.3787 21.264 81.4627 21.678 81.4627 22.074C81.4627 22.386 81.3907 22.662 81.2467 22.902C81.1147 23.142 80.9347 23.346 80.7067 23.514C80.4907 23.67 80.2447 23.79 79.9687 23.874C79.6927 23.958 79.4107 24 79.1227 24C78.7027 24 78.3127 23.928 77.9527 23.784C77.5927 23.64 77.2807 23.442 77.0167 23.19C76.7647 22.938 76.5607 22.638 76.4047 22.29C76.2607 21.93 76.1887 21.534 76.1887 21.102C76.1887 20.778 76.2427 20.436 76.3507 20.076C76.4707 19.716 76.6027 19.35 76.7467 18.978C76.8907 18.606 77.0167 18.24 77.1247 17.88C77.2447 17.52 77.3047 17.178 77.3047 16.854C77.3047 16.53 77.2627 16.224 77.1787 15.936C77.1067 15.636 77.0227 15.342 76.9267 15.054C76.8427 14.766 76.7587 14.472 76.6747 14.172C76.6027 13.872 76.5667 13.56 76.5667 13.236C76.5667 13.02 76.5787 12.792 76.6027 12.552C76.6387 12.3 76.6987 12.078 76.7827 11.886C76.8667 11.682 76.9867 11.514 77.1427 11.382C77.2987 11.25 77.5087 11.184 77.7727 11.184ZM89.4807 11.13C90.0207 11.13 90.6087 11.166 91.2447 11.238C91.8927 11.298 92.4867 11.442 93.0267 11.67C93.5787 11.898 94.0407 12.24 94.4127 12.696C94.7847 13.14 94.9707 13.74 94.9707 14.496C94.9707 14.82 94.9227 15.15 94.8267 15.486C94.7307 15.81 94.6287 16.14 94.5207 16.476C94.4127 16.812 94.3107 17.148 94.2147 17.484C94.1187 17.82 94.0707 18.15 94.0707 18.474C94.0707 18.774 94.1067 19.104 94.1787 19.464C94.2627 19.812 94.3527 20.166 94.4487 20.526C94.5567 20.886 94.6467 21.246 94.7187 21.606C94.8027 21.954 94.8447 22.284 94.8447 22.596C94.8447 23.052 94.7727 23.424 94.6287 23.712C94.4847 23.988 94.2867 24.204 94.0347 24.36C93.7947 24.516 93.5007 24.618 93.1527 24.666C92.8167 24.726 92.4507 24.756 92.0547 24.756C91.9347 24.756 91.7847 24.726 91.6047 24.666C91.4247 24.618 91.2507 24.54 91.0827 24.432C90.9267 24.336 90.7887 24.216 90.6687 24.072C90.5487 23.928 90.4887 23.766 90.4887 23.586C90.4887 23.454 90.5247 23.322 90.5967 23.19C90.6687 23.058 90.7407 22.926 90.8127 22.794C90.8967 22.65 90.9747 22.512 91.0467 22.38C91.1187 22.236 91.1547 22.098 91.1547 21.966C91.1547 21.882 91.1367 21.81 91.1007 21.75C91.0647 21.69 90.9987 21.66 90.9027 21.66C90.8187 21.66 90.7167 21.726 90.5967 21.858C90.4887 21.99 90.3567 22.158 90.2007 22.362C90.0567 22.554 89.8947 22.77 89.7147 23.01C89.5467 23.238 89.3547 23.454 89.1387 23.658C88.9347 23.85 88.7127 24.012 88.4727 24.144C88.2447 24.276 87.9987 24.342 87.7347 24.342C87.2427 24.342 86.8167 24.234 86.4567 24.018C86.1087 23.802 85.8147 23.52 85.5747 23.172C85.3467 22.824 85.1727 22.44 85.0527 22.02C84.9447 21.588 84.8907 21.156 84.8907 20.724C84.8907 20.184 84.9627 19.656 85.1067 19.14C85.2507 18.624 85.4667 18.168 85.7547 17.772C86.0427 17.376 86.4087 17.058 86.8527 16.818C87.2967 16.578 87.8127 16.458 88.4007 16.458C88.7367 16.458 89.0667 16.476 89.3907 16.512C89.7267 16.536 90.0627 16.548 90.3987 16.548C90.4707 16.548 90.5547 16.536 90.6507 16.512C90.7587 16.476 90.8607 16.428 90.9567 16.368C91.0527 16.296 91.1367 16.212 91.2087 16.116C91.2807 16.02 91.3167 15.906 91.3167 15.774C91.3167 15.702 91.2987 15.582 91.2627 15.414C91.2267 15.246 91.1727 15.078 91.1007 14.91C91.0287 14.73 90.9387 14.58 90.8307 14.46C90.7227 14.328 90.5907 14.262 90.4347 14.262C90.2187 14.262 90.0327 14.352 89.8767 14.532C89.7327 14.7 89.5767 14.892 89.4087 15.108C89.2527 15.312 89.0787 15.504 88.8867 15.684C88.6947 15.852 88.4487 15.936 88.1487 15.936C87.8727 15.936 87.5967 15.906 87.3207 15.846C87.0447 15.774 86.7987 15.672 86.5827 15.54C86.3667 15.396 86.1927 15.216 86.0607 15C85.9287 14.784 85.8627 14.52 85.8627 14.208C85.8627 13.728 85.9647 13.302 86.1687 12.93C86.3727 12.546 86.6367 12.222 86.9607 11.958C87.2967 11.694 87.6807 11.49 88.1127 11.346C88.5567 11.202 89.0127 11.13 89.4807 11.13ZM88.3827 19.878C88.3827 19.974 88.4307 20.064 88.5267 20.148C88.6227 20.22 88.7907 20.256 89.0307 20.256C89.1507 20.256 89.3127 20.226 89.5167 20.166C89.7207 20.094 89.9187 20.01 90.1107 19.914C90.3027 19.818 90.4707 19.704 90.6147 19.572C90.7587 19.44 90.8307 19.314 90.8307 19.194C90.8307 19.11 90.7347 19.026 90.5427 18.942C90.3627 18.858 90.1347 18.816 89.8587 18.816C89.7267 18.816 89.5707 18.846 89.3907 18.906C89.2227 18.966 89.0607 19.05 88.9047 19.158C88.7607 19.254 88.6347 19.368 88.5267 19.5C88.4307 19.62 88.3827 19.746 88.3827 19.878ZM99.9773 10.446C100.649 10.446 101.231 10.506 101.723 10.626C102.215 10.746 102.623 10.944 102.947 11.22C103.271 11.496 103.511 11.862 103.667 12.318C103.835 12.762 103.919 13.308 103.919 13.956C103.919 14.208 103.889 14.454 103.829 14.694C103.769 14.922 103.673 15.126 103.541 15.306C103.421 15.486 103.271 15.63 103.091 15.738C102.923 15.846 102.719 15.9 102.479 15.9C102.059 15.9 101.759 15.834 101.579 15.702C101.399 15.57 101.309 15.42 101.309 15.252C101.309 14.976 101.291 14.766 101.255 14.622C101.219 14.466 101.117 14.388 100.949 14.388C100.841 14.388 100.745 14.424 100.661 14.496C100.589 14.568 100.523 14.658 100.463 14.766C100.415 14.874 100.373 14.988 100.337 15.108C100.313 15.216 100.301 15.318 100.301 15.414C100.301 15.75 100.337 16.002 100.409 16.17C100.481 16.338 100.577 16.452 100.697 16.512C100.817 16.56 100.961 16.584 101.129 16.584C101.297 16.572 101.471 16.566 101.651 16.566C101.819 16.566 101.993 16.596 102.173 16.656C102.353 16.704 102.515 16.782 102.659 16.89C102.803 16.986 102.923 17.112 103.019 17.268C103.115 17.412 103.163 17.58 103.163 17.772C103.163 18.132 103.103 18.444 102.983 18.708C102.863 18.96 102.593 19.086 102.173 19.086C101.969 19.086 101.765 19.068 101.561 19.032C101.357 18.996 101.153 18.978 100.949 18.978C100.829 18.978 100.709 19.002 100.589 19.05C100.469 19.098 100.409 19.2 100.409 19.356C100.409 19.716 100.469 20.07 100.589 20.418C100.721 20.754 100.859 21.096 101.003 21.444C101.159 21.78 101.297 22.128 101.417 22.488C101.549 22.848 101.615 23.226 101.615 23.622C101.615 23.718 101.615 23.808 101.615 23.892C101.615 23.976 101.603 24.066 101.579 24.162C101.543 24.366 101.435 24.546 101.255 24.702C101.087 24.858 100.883 24.984 100.643 25.08C100.415 25.188 100.175 25.266 99.9233 25.314C99.6713 25.362 99.4553 25.386 99.2753 25.386C99.0473 25.386 98.7713 25.35 98.4473 25.278C98.1353 25.206 97.8353 25.098 97.5473 24.954C97.2593 24.81 97.0133 24.63 96.8093 24.414C96.6173 24.198 96.5213 23.94 96.5213 23.64C96.5213 23.412 96.5573 23.136 96.6293 22.812C96.7013 22.488 96.7793 22.158 96.8633 21.822C96.9593 21.474 97.0433 21.132 97.1153 20.796C97.1873 20.46 97.2233 20.16 97.2233 19.896C97.2233 19.344 97.1873 18.984 97.1153 18.816C97.0433 18.636 96.9413 18.546 96.8093 18.546C96.7133 18.546 96.5993 18.576 96.4673 18.636C96.3353 18.684 96.1973 18.708 96.0533 18.708C95.9093 18.708 95.7713 18.66 95.6393 18.564C95.5193 18.468 95.4113 18.348 95.3153 18.204C95.2193 18.06 95.1413 17.91 95.0813 17.754C95.0213 17.586 94.9913 17.442 94.9913 17.322C94.9913 17.166 95.0093 17.004 95.0453 16.836C95.0813 16.656 95.1413 16.494 95.2253 16.35C95.3093 16.206 95.4113 16.086 95.5313 15.99C95.6633 15.894 95.8193 15.846 95.9993 15.846C96.1313 15.846 96.2393 15.864 96.3233 15.9C96.4193 15.924 96.5333 15.936 96.6653 15.936C96.8453 15.936 96.9653 15.876 97.0253 15.756C97.0973 15.624 97.1393 15.474 97.1513 15.306C97.1633 15.138 97.1513 14.958 97.1153 14.766C97.0913 14.574 97.0673 14.418 97.0433 14.298C96.9593 13.806 96.9413 13.332 96.9893 12.876C97.0493 12.408 97.1933 11.994 97.4213 11.634C97.6613 11.274 97.9913 10.986 98.4113 10.77C98.8313 10.554 99.3533 10.446 99.9773 10.446Z" fill="#e34d0a"/>
<path d="M44.446 33.644C44.446 33.896 44.494 34.13 44.59 34.346C44.686 34.55 44.794 34.76 44.914 34.976C45.034 35.18 45.142 35.39 45.238 35.606C45.334 35.822 45.382 36.056 45.382 36.308C45.382 36.62 45.31 36.896 45.166 37.136C45.022 37.364 44.836 37.556 44.608 37.712C44.38 37.868 44.128 37.982 43.852 38.054C43.576 38.138 43.3 38.18 43.024 38.18C42.136 38.18 41.494 37.982 41.098 37.586C40.714 37.178 40.522 36.542 40.522 35.678C40.522 35.294 40.57 34.928 40.666 34.58C40.774 34.22 40.888 33.866 41.008 33.518C41.128 33.17 41.236 32.816 41.332 32.456C41.44 32.096 41.494 31.73 41.494 31.358C41.494 31.01 41.464 30.662 41.404 30.314C41.344 29.966 41.278 29.618 41.206 29.27C41.134 28.91 41.068 28.556 41.008 28.208C40.948 27.848 40.918 27.494 40.918 27.146C40.918 26.894 40.942 26.642 40.99 26.39C41.05 26.138 41.14 25.916 41.26 25.724C41.392 25.52 41.566 25.358 41.782 25.238C41.998 25.118 42.268 25.058 42.592 25.058C42.916 25.058 43.222 25.082 43.51 25.13C43.81 25.166 44.068 25.238 44.284 25.346C44.512 25.454 44.692 25.604 44.824 25.796C44.956 25.976 45.022 26.21 45.022 26.498C45.022 26.726 44.992 26.954 44.932 27.182C44.884 27.398 44.824 27.614 44.752 27.83C44.692 28.046 44.632 28.262 44.572 28.478C44.524 28.682 44.5 28.898 44.5 29.126C44.5 29.306 44.542 29.45 44.626 29.558C44.722 29.654 44.836 29.732 44.968 29.792C45.112 29.84 45.262 29.876 45.418 29.9C45.574 29.912 45.718 29.918 45.85 29.918C46.198 29.918 46.432 29.846 46.552 29.702C46.684 29.558 46.75 29.318 46.75 28.982C46.75 28.766 46.72 28.592 46.66 28.46C46.6 28.328 46.528 28.196 46.444 28.064C46.372 27.932 46.306 27.782 46.246 27.614C46.186 27.434 46.156 27.188 46.156 26.876C46.156 26.276 46.306 25.826 46.606 25.526C46.918 25.226 47.29 25.076 47.722 25.076C48.226 25.076 48.652 25.154 49 25.31C49.348 25.454 49.63 25.664 49.846 25.94C50.062 26.204 50.218 26.534 50.314 26.93C50.422 27.314 50.476 27.746 50.476 28.226C50.476 28.55 50.422 28.862 50.314 29.162C50.206 29.462 50.08 29.762 49.936 30.062C49.804 30.35 49.684 30.644 49.576 30.944C49.468 31.244 49.414 31.55 49.414 31.862C49.414 32.174 49.474 32.492 49.594 32.816C49.714 33.128 49.846 33.446 49.99 33.77C50.134 34.094 50.266 34.418 50.386 34.742C50.506 35.066 50.566 35.39 50.566 35.714C50.566 36.074 50.524 36.416 50.44 36.74C50.368 37.064 50.248 37.352 50.08 37.604C49.912 37.844 49.69 38.036 49.414 38.18C49.138 38.336 48.808 38.414 48.424 38.414C48.124 38.414 47.836 38.384 47.56 38.324C47.284 38.276 47.038 38.18 46.822 38.036C46.606 37.904 46.432 37.718 46.3 37.478C46.168 37.226 46.102 36.908 46.102 36.524C46.102 36.236 46.144 35.948 46.228 35.66C46.324 35.372 46.426 35.084 46.534 34.796C46.654 34.508 46.756 34.226 46.84 33.95C46.936 33.662 46.984 33.374 46.984 33.086C46.984 32.966 46.93 32.864 46.822 32.78C46.714 32.684 46.588 32.606 46.444 32.546C46.3 32.486 46.144 32.444 45.976 32.42C45.82 32.384 45.688 32.366 45.58 32.366C45.196 32.366 44.908 32.468 44.716 32.672C44.536 32.864 44.446 33.188 44.446 33.644ZM55.9694 25.256C56.3414 25.256 56.7614 25.286 57.2294 25.346C57.7094 25.394 58.1594 25.502 58.5794 25.67C59.0114 25.826 59.3774 26.054 59.6774 26.354C59.9774 26.642 60.1394 27.026 60.1634 27.506C60.1754 27.818 60.1694 28.136 60.1454 28.46C60.1214 28.772 60.0974 29.084 60.0734 29.396C60.0614 29.708 60.0554 30.02 60.0554 30.332C60.0674 30.644 60.1154 30.956 60.1994 31.268C60.2954 31.652 60.4394 32.03 60.6314 32.402C60.8354 32.774 61.0334 33.152 61.2254 33.536C61.4294 33.908 61.6034 34.286 61.7474 34.67C61.8914 35.054 61.9634 35.444 61.9634 35.84C61.9634 36.188 61.9214 36.548 61.8374 36.92C61.7654 37.28 61.5974 37.58 61.3334 37.82C61.1174 38.024 60.8594 38.198 60.5594 38.342C60.2594 38.486 59.9594 38.558 59.6594 38.558C59.3954 38.558 59.1134 38.504 58.8134 38.396C58.5254 38.288 58.2914 38.132 58.1114 37.928C57.9914 37.796 57.9074 37.64 57.8594 37.46C57.8234 37.268 57.7934 37.076 57.7694 36.884C57.7574 36.692 57.7394 36.5 57.7154 36.308C57.7034 36.116 57.6614 35.948 57.5894 35.804C57.5294 35.648 57.4214 35.522 57.2654 35.426C57.1214 35.33 56.9114 35.282 56.6354 35.282C56.3834 35.282 56.1854 35.336 56.0414 35.444C55.8974 35.54 55.8254 35.726 55.8254 36.002C55.8254 36.158 55.8374 36.314 55.8614 36.47C55.8854 36.614 55.8974 36.764 55.8974 36.92C55.8974 37.16 55.8134 37.358 55.6454 37.514C55.4774 37.67 55.2674 37.796 55.0154 37.892C54.7754 37.988 54.5234 38.054 54.2594 38.09C53.9954 38.138 53.7674 38.162 53.5754 38.162C53.2874 38.162 52.9994 38.114 52.7114 38.018C52.4354 37.934 52.1894 37.802 51.9734 37.622C51.7574 37.442 51.5834 37.22 51.4514 36.956C51.3194 36.692 51.2534 36.392 51.2534 36.056C51.2534 35.972 51.2654 35.894 51.2894 35.822C51.3134 35.738 51.3374 35.654 51.3614 35.57C51.6494 34.778 51.9734 33.992 52.3334 33.212C52.7054 32.432 52.9994 31.64 53.2154 30.836C53.3114 30.452 53.3714 30.074 53.3954 29.702C53.4314 29.318 53.4614 28.94 53.4854 28.568C53.5094 28.184 53.5454 27.806 53.5934 27.434C53.6414 27.05 53.7314 26.678 53.8634 26.318C53.9474 26.102 54.0614 25.928 54.2054 25.796C54.3614 25.652 54.5354 25.544 54.7274 25.472C54.9194 25.388 55.1234 25.334 55.3394 25.31C55.5554 25.274 55.7654 25.256 55.9694 25.256ZM55.8074 31.934C55.8074 31.994 55.8374 32.048 55.8974 32.096C55.9694 32.132 56.0474 32.162 56.1314 32.186C56.2154 32.198 56.2994 32.21 56.3834 32.222C56.4674 32.222 56.5334 32.222 56.5814 32.222C56.6414 32.222 56.7314 32.216 56.8514 32.204C56.9714 32.18 57.0914 32.15 57.2114 32.114C57.3434 32.078 57.4514 32.03 57.5354 31.97C57.6314 31.91 57.6794 31.838 57.6794 31.754C57.6794 31.634 57.6674 31.454 57.6434 31.214C57.6194 30.974 57.5774 30.734 57.5174 30.494C57.4574 30.254 57.3734 30.044 57.2654 29.864C57.1694 29.684 57.0434 29.594 56.8874 29.594C56.7194 29.594 56.5694 29.684 56.4374 29.864C56.3054 30.044 56.1914 30.26 56.0954 30.512C55.9994 30.764 55.9274 31.022 55.8794 31.286C55.8314 31.55 55.8074 31.766 55.8074 31.934ZM66.2533 25.13C66.9853 25.13 67.6633 25.19 68.2873 25.31C68.9113 25.43 69.4513 25.634 69.9073 25.922C70.3753 26.198 70.7413 26.57 71.0053 27.038C71.2693 27.506 71.4013 28.094 71.4013 28.802C71.4013 29.258 71.3233 29.642 71.1673 29.954C71.0233 30.266 70.8373 30.53 70.6093 30.746C70.3813 30.962 70.1293 31.142 69.8533 31.286C69.5893 31.43 69.3433 31.556 69.1153 31.664C68.8873 31.76 68.6953 31.856 68.5393 31.952C68.3953 32.036 68.3233 32.132 68.3233 32.24C68.3233 32.408 68.3833 32.546 68.5033 32.654C68.6233 32.762 68.7733 32.852 68.9533 32.924C69.1453 32.984 69.3613 33.026 69.6013 33.05C69.8533 33.074 70.1053 33.086 70.3573 33.086C70.9573 33.086 71.4613 33.32 71.8693 33.788C72.2773 34.244 72.4813 34.916 72.4813 35.804C72.4813 36.176 72.4153 36.518 72.2833 36.83C72.1513 37.142 71.9713 37.412 71.7433 37.64C71.5273 37.856 71.2753 38.024 70.9873 38.144C70.7113 38.264 70.4293 38.324 70.1413 38.324C69.8893 38.324 69.6493 38.27 69.4213 38.162C69.1933 38.054 68.9953 37.91 68.8273 37.73C68.7073 37.61 68.5813 37.376 68.4493 37.028C68.3293 36.668 68.1973 36.302 68.0533 35.93C67.9093 35.558 67.7533 35.228 67.5853 34.94C67.4293 34.652 67.2613 34.508 67.0813 34.508C66.9613 34.508 66.8653 34.574 66.7933 34.706C66.7333 34.826 66.7033 34.934 66.7033 35.03C66.7033 35.174 66.7333 35.318 66.7933 35.462C66.8653 35.606 66.9373 35.756 67.0093 35.912C67.0813 36.056 67.1473 36.212 67.2073 36.38C67.2793 36.536 67.3153 36.698 67.3153 36.866C67.3153 37.13 67.2193 37.364 67.0273 37.568C66.8473 37.76 66.6253 37.916 66.3613 38.036C66.1093 38.168 65.8333 38.264 65.5333 38.324C65.2453 38.384 64.9933 38.414 64.7773 38.414C64.1173 38.414 63.5833 38.222 63.1753 37.838C62.7673 37.454 62.5633 36.92 62.5633 36.236C62.5633 35.768 62.6173 35.348 62.7253 34.976C62.8333 34.592 62.9473 34.226 63.0673 33.878C63.1873 33.518 63.2893 33.152 63.3733 32.78C63.4693 32.408 63.5053 31.988 63.4813 31.52C63.4573 31.136 63.4033 30.776 63.3193 30.44C63.2473 30.092 63.1633 29.756 63.0673 29.432C62.9833 29.096 62.9053 28.754 62.8333 28.406C62.7733 28.058 62.7433 27.698 62.7433 27.326C62.7433 26.978 62.8513 26.672 63.0673 26.408C63.2833 26.132 63.5593 25.898 63.8953 25.706C64.2313 25.514 64.6033 25.37 65.0113 25.274C65.4313 25.178 65.8453 25.13 66.2533 25.13ZM67.2433 30.314C67.5553 30.314 67.8133 30.212 68.0173 30.008C68.2333 29.792 68.3413 29.504 68.3413 29.144C68.3413 28.772 68.2213 28.466 67.9813 28.226C67.7533 27.986 67.4833 27.866 67.1713 27.866C66.9073 27.866 66.7093 27.98 66.5773 28.208C66.4453 28.424 66.3793 28.7 66.3793 29.036C66.3793 29.384 66.4513 29.684 66.5953 29.936C66.7513 30.188 66.9673 30.314 67.2433 30.314ZM76.1882 25.274C76.7642 25.274 77.3102 25.388 77.8262 25.616C78.3542 25.832 78.8462 26.12 79.3022 26.48C79.7702 26.828 80.2022 27.224 80.5982 27.668C81.0062 28.1 81.3722 28.526 81.6962 28.946C81.8762 29.174 82.0382 29.444 82.1822 29.756C82.3262 30.056 82.4462 30.368 82.5422 30.692C82.6382 31.016 82.7102 31.346 82.7582 31.682C82.8182 32.006 82.8482 32.312 82.8482 32.6C82.8482 32.96 82.8182 33.338 82.7582 33.734C82.6982 34.13 82.5962 34.514 82.4522 34.886C82.3202 35.258 82.1402 35.6 81.9122 35.912C81.6962 36.224 81.4202 36.482 81.0842 36.686C80.4002 37.094 79.6502 37.448 78.8342 37.748C78.0182 38.048 77.2142 38.198 76.4222 38.198C76.0982 38.198 75.7502 38.156 75.3782 38.072C75.0182 37.988 74.6822 37.856 74.3702 37.676C74.0702 37.484 73.8182 37.25 73.6142 36.974C73.4102 36.686 73.3082 36.344 73.3082 35.948C73.3082 35.624 73.3562 35.312 73.4522 35.012C73.5482 34.7 73.6502 34.394 73.7582 34.094C73.8662 33.782 73.9682 33.476 74.0642 33.176C74.1602 32.864 74.2082 32.546 74.2082 32.222C74.2082 31.826 74.1422 31.502 74.0102 31.25C73.8782 30.986 73.7342 30.722 73.5782 30.458C73.4342 30.194 73.2962 29.894 73.1642 29.558C73.0322 29.21 72.9662 28.76 72.9662 28.208C72.9662 28.052 72.9662 27.884 72.9662 27.704C72.9782 27.524 73.0022 27.344 73.0382 27.164C73.0742 26.984 73.1282 26.816 73.2002 26.66C73.2722 26.504 73.3742 26.378 73.5062 26.282C73.8662 26.018 74.2862 25.784 74.7662 25.58C75.2582 25.376 75.7322 25.274 76.1882 25.274ZM76.8542 31.142C76.8542 31.37 76.8542 31.61 76.8542 31.862C76.8662 32.102 76.8962 32.336 76.9442 32.564C76.9922 32.78 77.0702 32.984 77.1782 33.176C77.2982 33.356 77.4602 33.494 77.6642 33.59C77.7362 33.626 77.8082 33.644 77.8802 33.644C78.0242 33.644 78.1382 33.578 78.2222 33.446C78.3182 33.302 78.3902 33.134 78.4382 32.942C78.4982 32.738 78.5342 32.534 78.5462 32.33C78.5702 32.114 78.5822 31.94 78.5822 31.808C78.5822 31.64 78.5582 31.394 78.5102 31.07C78.4742 30.746 78.4082 30.428 78.3122 30.116C78.2282 29.792 78.1082 29.516 77.9522 29.288C77.7962 29.048 77.6042 28.928 77.3762 28.928C77.2682 29 77.1782 29.132 77.1062 29.324C77.0342 29.516 76.9802 29.726 76.9442 29.954C76.9082 30.182 76.8842 30.404 76.8722 30.62C76.8602 30.836 76.8542 31.01 76.8542 31.142ZM85.8388 25.256C86.5948 25.256 87.1468 25.442 87.4948 25.814C87.8548 26.174 88.0348 26.786 88.0348 27.65C88.0348 28.094 87.9988 28.472 87.9268 28.784C87.8548 29.084 87.7768 29.366 87.6928 29.63C87.6208 29.894 87.5488 30.164 87.4768 30.44C87.4048 30.716 87.3688 31.046 87.3688 31.43C87.3688 31.79 87.4108 32.168 87.4948 32.564C87.5908 32.948 87.6928 33.338 87.8008 33.734C87.9088 34.13 88.0048 34.52 88.0888 34.904C88.1848 35.288 88.2328 35.648 88.2328 35.984C88.2328 36.752 87.9928 37.334 87.5128 37.73C87.0448 38.114 86.4568 38.306 85.7488 38.306C84.8848 38.306 84.2368 38.042 83.8048 37.514C83.3848 36.986 83.1748 36.266 83.1748 35.354C83.1748 34.982 83.2348 34.616 83.3548 34.256C83.4748 33.896 83.6068 33.536 83.7508 33.176C83.9068 32.804 84.0448 32.432 84.1648 32.06C84.2848 31.688 84.3448 31.316 84.3448 30.944C84.3448 30.728 84.3148 30.518 84.2548 30.314C84.2068 30.098 84.1408 29.888 84.0568 29.684L83.8048 29.036C83.7208 28.832 83.6488 28.628 83.5888 28.424C83.5408 28.208 83.5168 27.992 83.5168 27.776C83.5168 27.464 83.5648 27.158 83.6608 26.858C83.7568 26.558 83.9008 26.294 84.0928 26.066C84.2848 25.826 84.5248 25.634 84.8128 25.49C85.1008 25.334 85.4428 25.256 85.8388 25.256ZM93.8373 33.356C93.8373 33.632 93.8973 33.83 94.0173 33.95C94.1373 34.058 94.3593 34.112 94.6833 34.112C94.8993 34.112 95.0853 34.07 95.2413 33.986C95.4093 33.89 95.5713 33.794 95.7273 33.698C95.8833 33.59 96.0453 33.494 96.2133 33.41C96.3933 33.314 96.5913 33.266 96.8073 33.266C97.0593 33.266 97.2873 33.338 97.4913 33.482C97.7073 33.614 97.8933 33.788 98.0493 34.004C98.2053 34.208 98.3253 34.436 98.4093 34.688C98.4933 34.94 98.5353 35.18 98.5353 35.408C98.5353 35.948 98.3673 36.404 98.0313 36.776C97.7073 37.148 97.3053 37.454 96.8253 37.694C96.3573 37.934 95.8533 38.102 95.3133 38.198C94.7853 38.306 94.3233 38.36 93.9273 38.36C93.6993 38.36 93.4053 38.342 93.0453 38.306C92.6973 38.282 92.3253 38.234 91.9293 38.162C91.5453 38.09 91.1553 37.994 90.7593 37.874C90.3753 37.754 90.0273 37.604 89.7153 37.424C89.4033 37.244 89.1453 37.028 88.9413 36.776C88.7493 36.512 88.6533 36.212 88.6533 35.876C88.6533 35.48 88.7553 35.108 88.9593 34.76C89.1753 34.412 89.4393 34.082 89.7513 33.77C90.0753 33.446 90.4233 33.134 90.7953 32.834C91.1673 32.534 91.5093 32.228 91.8213 31.916C92.1453 31.604 92.4093 31.286 92.6133 30.962C92.8293 30.626 92.9373 30.272 92.9373 29.9C92.9373 29.792 92.9313 29.684 92.9193 29.576C92.9193 29.456 92.9013 29.348 92.8653 29.252C92.8293 29.144 92.7753 29.06 92.7033 29C92.6313 28.94 92.5293 28.91 92.3973 28.91C92.2533 28.91 92.1093 28.934 91.9653 28.982C91.8333 29.018 91.6953 29.066 91.5513 29.126C91.4193 29.174 91.2813 29.222 91.1373 29.27C90.9933 29.318 90.8433 29.342 90.6873 29.342C90.4473 29.342 90.2313 29.276 90.0393 29.144C89.8473 29.012 89.6793 28.85 89.5353 28.658C89.4033 28.454 89.3013 28.238 89.2293 28.01C89.1573 27.77 89.1213 27.542 89.1213 27.326C89.1213 26.834 89.2173 26.456 89.4093 26.192C89.6013 25.928 89.8473 25.736 90.1473 25.616C90.4473 25.484 90.7833 25.406 91.1553 25.382C91.5273 25.358 91.8993 25.346 92.2713 25.346C92.6193 25.346 93.0033 25.358 93.4233 25.382C93.8433 25.394 94.2693 25.418 94.7013 25.454C95.1333 25.49 95.5533 25.544 95.9613 25.616C96.3693 25.676 96.7353 25.76 97.0593 25.868C97.2273 25.916 97.3773 25.976 97.5093 26.048C97.6533 26.108 97.7733 26.192 97.8693 26.3C97.9653 26.396 98.0433 26.528 98.1033 26.696C98.1633 26.852 98.1933 27.056 98.1933 27.308C98.1933 27.656 98.0853 28.022 97.8693 28.406C97.6533 28.778 97.3833 29.156 97.0593 29.54C96.7353 29.924 96.3873 30.302 96.0153 30.674C95.6433 31.046 95.2953 31.4 94.9713 31.736C94.6473 32.072 94.3773 32.378 94.1613 32.654C93.9453 32.93 93.8373 33.164 93.8373 33.356ZM101.536 25.256C102.292 25.256 102.844 25.442 103.192 25.814C103.552 26.174 103.732 26.786 103.732 27.65C103.732 28.094 103.696 28.472 103.624 28.784C103.552 29.084 103.474 29.366 103.39 29.63C103.318 29.894 103.246 30.164 103.174 30.44C103.102 30.716 103.066 31.046 103.066 31.43C103.066 31.79 103.108 32.168 103.192 32.564C103.288 32.948 103.39 33.338 103.498 33.734C103.606 34.13 103.702 34.52 103.786 34.904C103.882 35.288 103.93 35.648 103.93 35.984C103.93 36.752 103.69 37.334 103.21 37.73C102.742 38.114 102.154 38.306 101.446 38.306C100.582 38.306 99.9341 38.042 99.5021 37.514C99.0821 36.986 98.8721 36.266 98.8721 35.354C98.8721 34.982 98.9321 34.616 99.0521 34.256C99.1721 33.896 99.3041 33.536 99.4481 33.176C99.6041 32.804 99.7421 32.432 99.8621 32.06C99.9821 31.688 100.042 31.316 100.042 30.944C100.042 30.728 100.012 30.518 99.9521 30.314C99.9041 30.098 99.8381 29.888 99.7541 29.684L99.5021 29.036C99.4181 28.832 99.3461 28.628 99.2861 28.424C99.2381 28.208 99.2141 27.992 99.2141 27.776C99.2141 27.464 99.2621 27.158 99.3581 26.858C99.4541 26.558 99.5981 26.294 99.7901 26.066C99.9821 25.826 100.222 25.634 100.51 25.49C100.798 25.334 101.14 25.256 101.536 25.256Z" fill="#e34d0a"/>
<mask id="path-3-outside-1_8_18" maskUnits="userSpaceOnUse" x="0" y="10" width="40" height="29" fill="black">
<rect fill="white" y="10" width="40" height="29"/>
<path fill-rule="evenodd" clip-rule="evenodd" d="M12.62 11.175C11.71 11.0583 10.8933 11 10.17 11C9.77334 11 9.365 11.035 8.945 11.105C8.525 11.1517 8.12833 11.2567 7.755 11.42C7.38167 11.56 7.04333 11.77 6.74 12.05C6.46 12.3067 6.23834 12.645 6.075 13.065C5.81833 13.765 5.64333 14.4883 5.55 15.235C5.45667 15.9583 5.38667 16.6933 5.34 17.44C5.29333 18.1633 5.235 18.8983 5.165 19.645C5.11833 20.3683 5.00167 21.1033 4.815 21.85C4.395 23.4133 3.82333 24.9533 3.1 26.47C2.4 27.9867 1.77 29.515 1.21 31.055L1.07 31.545C1.02333 31.685 1 31.8367 1 32C1 32.6533 1.12833 33.2367 1.385 33.75C1.64167 34.2633 1.98 34.695 2.4 35.045C2.82 35.395 3.29833 35.6517 3.835 35.815C4.395 36.0017 4.955 36.095 5.515 36.095C5.88833 36.095 6.33167 36.0483 6.845 35.955C7.35834 35.885 7.84833 35.7567 8.315 35.57C8.805 35.3833 9.21334 35.1383 9.54 34.835C9.86667 34.5317 10.03 34.1467 10.03 33.68C10.03 33.3767 10.0067 33.085 9.96 32.805C9.91333 32.5017 9.89 32.1983 9.89 31.895C9.89 31.3583 10.03 30.9967 10.31 30.81C10.59 30.6 10.975 30.495 11.465 30.495C12.0017 30.495 12.41 30.5883 12.69 30.775C12.9933 30.9617 13.2033 31.2067 13.32 31.51C13.46 31.79 13.5417 32.1167 13.565 32.49C13.6117 32.8633 13.6467 33.2367 13.67 33.61C13.7167 33.9833 13.775 34.3567 13.845 34.73C13.9383 35.08 14.1017 35.3833 14.335 35.64C14.685 36.0367 15.14 36.34 15.7 36.55C16.2833 36.76 16.8317 36.865 17.345 36.865C17.9283 36.865 19.0585 36.83 19.6419 36.55C20.1796 36.2919 20.1023 36.3323 20.5013 35.975C20.6083 36.1394 20.5904 36.1423 20.72 36.28C21.49 37.05 22.8733 37.13 24.6 37.13C25.1367 37.13 25.6733 37.0483 26.21 36.885C26.7467 36.745 27.2367 36.5233 27.68 36.22C28.1233 35.9167 28.485 35.5433 28.765 35.1C29.045 34.6333 29.185 34.0967 29.185 33.49C29.185 33 29.0917 32.545 28.905 32.125C28.7183 31.705 28.5083 31.2967 28.275 30.9C28.0417 30.48 27.8317 30.0717 27.645 29.675C27.4583 29.255 27.365 28.8 27.365 28.31C27.365 27.4233 27.54 26.7933 27.89 26.42C28.2633 26.0233 28.8233 25.825 29.57 25.825C29.78 25.825 30.0367 25.86 30.34 25.93C30.6667 25.9767 30.97 26.0583 31.25 26.175C31.53 26.2917 31.775 26.4433 31.985 26.63C32.195 26.7933 32.3 26.9917 32.3 27.225C32.3 27.785 32.2067 28.345 32.02 28.905C31.8567 29.4417 31.6583 29.99 31.425 30.55C31.215 31.11 31.0167 31.67 30.83 32.23C30.6667 32.79 30.585 33.35 30.585 33.91C30.585 34.6567 30.7133 35.275 30.97 35.765C31.2267 36.2317 31.565 36.5933 31.985 36.85C32.405 37.13 32.8833 37.3167 33.42 37.41C33.9567 37.5267 34.5167 37.585 35.1 37.585C35.8467 37.585 36.4883 37.4333 37.025 37.13C37.5617 36.85 37.9933 36.4767 38.32 36.01C38.6467 35.52 38.88 34.96 39.02 34.33C39.1833 33.7 39.265 33.035 39.265 32.335C39.265 31.705 39.1483 31.075 38.915 30.445C38.6817 29.815 38.425 29.185 38.145 28.555C37.865 27.925 37.6083 27.3067 37.375 26.7C37.1417 26.07 37.025 25.4517 37.025 24.845C37.025 24.2383 37.13 23.6433 37.34 23.06C37.55 22.4767 37.7833 21.905 38.04 21.345C38.32 20.7617 38.565 20.1783 38.775 19.595C38.985 19.0117 39.09 18.405 39.09 17.775C39.09 16.8417 38.985 16.0017 38.775 15.255C38.5883 14.485 38.285 13.8433 37.865 13.33C37.445 12.7933 36.8967 12.385 36.22 12.105C35.5433 11.8017 34.715 11.65 33.735 11.65C32.895 11.65 32.1717 11.9417 31.565 12.525C30.9817 13.1083 30.69 13.9833 30.69 15.15C30.69 15.7567 30.7483 16.235 30.865 16.585C30.9817 16.9117 31.11 17.2033 31.25 17.46C31.4133 17.7167 31.5533 17.9733 31.67 18.23C31.7867 18.4867 31.845 18.825 31.845 19.245C31.845 19.8983 31.7167 20.365 31.46 20.645C31.2267 20.925 30.7717 21.065 30.095 21.065C29.8383 21.065 29.5583 21.0533 29.255 21.03C28.9517 20.9833 28.66 20.9133 28.38 20.82C28.1233 20.7033 27.9017 20.5517 27.715 20.365C27.5517 20.155 27.47 19.875 27.47 19.525C27.47 19.0817 27.5167 18.6617 27.61 18.265L27.96 17.005C28.1 16.585 28.2167 16.165 28.31 15.745C28.4267 15.3017 28.485 14.8583 28.485 14.415C28.485 13.855 28.3567 13.4 28.1 13.05C27.8433 12.6767 27.4933 12.385 27.05 12.175C26.63 11.965 26.1283 11.825 25.545 11.755C24.985 11.6617 24.39 11.615 23.76 11.615C23.13 11.615 22.605 11.7317 22.185 11.965C21.765 12.1983 21.4267 12.5133 21.17 12.91C20.9367 13.2833 20.7617 13.715 20.645 14.205C20.5517 14.695 20.505 15.185 20.505 15.675C20.505 16.3517 20.5633 17.04 20.68 17.74C20.7967 18.4167 20.925 19.105 21.065 19.805C21.205 20.4817 21.3333 21.1583 21.45 21.835C21.5667 22.5117 21.625 23.1883 21.625 23.865C21.625 24.5883 21.52 25.3 21.31 26C21.1459 26.6155 20.9637 27.222 20.7635 27.8195C20.6453 27.5784 20.5208 27.3386 20.39 27.1C20.0167 26.3533 19.6317 25.6183 19.235 24.895C18.8617 24.1717 18.5817 23.4367 18.395 22.69C18.2317 22.0833 18.1383 21.4767 18.115 20.87C18.115 20.2633 18.1267 19.6567 18.15 19.05L18.29 17.23C18.3367 16.6 18.3483 15.9817 18.325 15.375C18.2783 14.4417 17.9633 13.695 17.38 13.135C16.7967 12.5517 16.085 12.1083 15.245 11.805C14.4283 11.4783 13.5533 11.2683 12.62 11.175ZM10.03 24.3C9.91333 24.2067 9.855 24.1017 9.855 23.985C9.855 23.6583 9.90167 23.2383 9.995 22.725C10.0883 22.2117 10.2283 21.71 10.415 21.22C10.6017 20.73 10.8233 20.31 11.08 19.96C11.3367 19.61 11.6283 19.435 11.955 19.435C12.2583 19.435 12.5033 19.61 12.69 19.96C12.9 20.31 13.0633 20.7183 13.18 21.185C13.2967 21.6517 13.3783 22.1183 13.425 22.585C13.4717 23.0517 13.495 23.4017 13.495 23.635C13.495 23.7983 13.4017 23.9383 13.215 24.055C13.0517 24.1717 12.8417 24.265 12.585 24.335C12.3517 24.405 12.1183 24.4633 11.885 24.51C11.6517 24.5333 11.4767 24.545 11.36 24.545H10.975L10.485 24.475C10.3217 24.4283 10.17 24.37 10.03 24.3Z"/>
</mask>
<path fill-rule="evenodd" clip-rule="evenodd" d="M12.62 11.175C11.71 11.0583 10.8933 11 10.17 11C9.77334 11 9.365 11.035 8.945 11.105C8.525 11.1517 8.12833 11.2567 7.755 11.42C7.38167 11.56 7.04333 11.77 6.74 12.05C6.46 12.3067 6.23834 12.645 6.075 13.065C5.81833 13.765 5.64333 14.4883 5.55 15.235C5.45667 15.9583 5.38667 16.6933 5.34 17.44C5.29333 18.1633 5.235 18.8983 5.165 19.645C5.11833 20.3683 5.00167 21.1033 4.815 21.85C4.395 23.4133 3.82333 24.9533 3.1 26.47C2.4 27.9867 1.77 29.515 1.21 31.055L1.07 31.545C1.02333 31.685 1 31.8367 1 32C1 32.6533 1.12833 33.2367 1.385 33.75C1.64167 34.2633 1.98 34.695 2.4 35.045C2.82 35.395 3.29833 35.6517 3.835 35.815C4.395 36.0017 4.955 36.095 5.515 36.095C5.88833 36.095 6.33167 36.0483 6.845 35.955C7.35834 35.885 7.84833 35.7567 8.315 35.57C8.805 35.3833 9.21334 35.1383 9.54 34.835C9.86667 34.5317 10.03 34.1467 10.03 33.68C10.03 33.3767 10.0067 33.085 9.96 32.805C9.91333 32.5017 9.89 32.1983 9.89 31.895C9.89 31.3583 10.03 30.9967 10.31 30.81C10.59 30.6 10.975 30.495 11.465 30.495C12.0017 30.495 12.41 30.5883 12.69 30.775C12.9933 30.9617 13.2033 31.2067 13.32 31.51C13.46 31.79 13.5417 32.1167 13.565 32.49C13.6117 32.8633 13.6467 33.2367 13.67 33.61C13.7167 33.9833 13.775 34.3567 13.845 34.73C13.9383 35.08 14.1017 35.3833 14.335 35.64C14.685 36.0367 15.14 36.34 15.7 36.55C16.2833 36.76 16.8317 36.865 17.345 36.865C17.9283 36.865 19.0585 36.83 19.6419 36.55C20.1796 36.2919 20.1023 36.3323 20.5013 35.975C20.6083 36.1394 20.5904 36.1423 20.72 36.28C21.49 37.05 22.8733 37.13 24.6 37.13C25.1367 37.13 25.6733 37.0483 26.21 36.885C26.7467 36.745 27.2367 36.5233 27.68 36.22C28.1233 35.9167 28.485 35.5433 28.765 35.1C29.045 34.6333 29.185 34.0967 29.185 33.49C29.185 33 29.0917 32.545 28.905 32.125C28.7183 31.705 28.5083 31.2967 28.275 30.9C28.0417 30.48 27.8317 30.0717 27.645 29.675C27.4583 29.255 27.365 28.8 27.365 28.31C27.365 27.4233 27.54 26.7933 27.89 26.42C28.2633 26.0233 28.8233 25.825 29.57 25.825C29.78 25.825 30.0367 25.86 30.34 25.93C30.6667 25.9767 30.97 26.0583 31.25 26.175C31.53 26.2917 31.775 26.4433 31.985 26.63C32.195 26.7933 32.3 26.9917 32.3 27.225C32.3 27.785 32.2067 28.345 32.02 28.905C31.8567 29.4417 31.6583 29.99 31.425 30.55C31.215 31.11 31.0167 31.67 30.83 32.23C30.6667 32.79 30.585 33.35 30.585 33.91C30.585 34.6567 30.7133 35.275 30.97 35.765C31.2267 36.2317 31.565 36.5933 31.985 36.85C32.405 37.13 32.8833 37.3167 33.42 37.41C33.9567 37.5267 34.5167 37.585 35.1 37.585C35.8467 37.585 36.4883 37.4333 37.025 37.13C37.5617 36.85 37.9933 36.4767 38.32 36.01C38.6467 35.52 38.88 34.96 39.02 34.33C39.1833 33.7 39.265 33.035 39.265 32.335C39.265 31.705 39.1483 31.075 38.915 30.445C38.6817 29.815 38.425 29.185 38.145 28.555C37.865 27.925 37.6083 27.3067 37.375 26.7C37.1417 26.07 37.025 25.4517 37.025 24.845C37.025 24.2383 37.13 23.6433 37.34 23.06C37.55 22.4767 37.7833 21.905 38.04 21.345C38.32 20.7617 38.565 20.1783 38.775 19.595C38.985 19.0117 39.09 18.405 39.09 17.775C39.09 16.8417 38.985 16.0017 38.775 15.255C38.5883 14.485 38.285 13.8433 37.865 13.33C37.445 12.7933 36.8967 12.385 36.22 12.105C35.5433 11.8017 34.715 11.65 33.735 11.65C32.895 11.65 32.1717 11.9417 31.565 12.525C30.9817 13.1083 30.69 13.9833 30.69 15.15C30.69 15.7567 30.7483 16.235 30.865 16.585C30.9817 16.9117 31.11 17.2033 31.25 17.46C31.4133 17.7167 31.5533 17.9733 31.67 18.23C31.7867 18.4867 31.845 18.825 31.845 19.245C31.845 19.8983 31.7167 20.365 31.46 20.645C31.2267 20.925 30.7717 21.065 30.095 21.065C29.8383 21.065 29.5583 21.0533 29.255 21.03C28.9517 20.9833 28.66 20.9133 28.38 20.82C28.1233 20.7033 27.9017 20.5517 27.715 20.365C27.5517 20.155 27.47 19.875 27.47 19.525C27.47 19.0817 27.5167 18.6617 27.61 18.265L27.96 17.005C28.1 16.585 28.2167 16.165 28.31 15.745C28.4267 15.3017 28.485 14.8583 28.485 14.415C28.485 13.855 28.3567 13.4 28.1 13.05C27.8433 12.6767 27.4933 12.385 27.05 12.175C26.63 11.965 26.1283 11.825 25.545 11.755C24.985 11.6617 24.39 11.615 23.76 11.615C23.13 11.615 22.605 11.7317 22.185 11.965C21.765 12.1983 21.4267 12.5133 21.17 12.91C20.9367 13.2833 20.7617 13.715 20.645 14.205C20.5517 14.695 20.505 15.185 20.505 15.675C20.505 16.3517 20.5633 17.04 20.68 17.74C20.7967 18.4167 20.925 19.105 21.065 19.805C21.205 20.4817 21.3333 21.1583 21.45 21.835C21.5667 22.5117 21.625 23.1883 21.625 23.865C21.625 24.5883 21.52 25.3 21.31 26C21.1459 26.6155 20.9637 27.222 20.7635 27.8195C20.6453 27.5784 20.5208 27.3386 20.39 27.1C20.0167 26.3533 19.6317 25.6183 19.235 24.895C18.8617 24.1717 18.5817 23.4367 18.395 22.69C18.2317 22.0833 18.1383 21.4767 18.115 20.87C18.115 20.2633 18.1267 19.6567 18.15 19.05L18.29 17.23C18.3367 16.6 18.3483 15.9817 18.325 15.375C18.2783 14.4417 17.9633 13.695 17.38 13.135C16.7967 12.5517 16.085 12.1083 15.245 11.805C14.4283 11.4783 13.5533 11.2683 12.62 11.175ZM10.03 24.3C9.91333 24.2067 9.855 24.1017 9.855 23.985C9.855 23.6583 9.90167 23.2383 9.995 22.725C10.0883 22.2117 10.2283 21.71 10.415 21.22C10.6017 20.73 10.8233 20.31 11.08 19.96C11.3367 19.61 11.6283 19.435 11.955 19.435C12.2583 19.435 12.5033 19.61 12.69 19.96C12.9 20.31 13.0633 20.7183 13.18 21.185C13.2967 21.6517 13.3783 22.1183 13.425 22.585C13.4717 23.0517 13.495 23.4017 13.495 23.635C13.495 23.7983 13.4017 23.9383 13.215 24.055C13.0517 24.1717 12.8417 24.265 12.585 24.335C12.3517 24.405 12.1183 24.4633 11.885 24.51C11.6517 24.5333 11.4767 24.545 11.36 24.545H10.975L10.485 24.475C10.3217 24.4283 10.17 24.37 10.03 24.3Z" stroke="#e34d0a" mask="url(#path-3-outside-1_8_18)"/>
<path fill-rule="evenodd" clip-rule="evenodd" d="M12.62 11.175C11.71 11.0583 10.8933 11 10.17 11C9.77334 11 9.365 11.035 8.945 11.105C8.525 11.1517 8.12833 11.2567 7.755 11.42C7.38167 11.56 7.04333 11.77 6.74 12.05C6.46 12.3067 6.23834 12.645 6.075 13.065C5.81833 13.765 5.64333 14.4883 5.55 15.235C5.45667 15.9583 5.38667 16.6933 5.34 17.44C5.29333 18.1633 5.235 18.8983 5.165 19.645C5.11833 20.3683 5.00167 21.1033 4.815 21.85C4.395 23.4133 3.82333 24.9533 3.1 26.47C2.4 27.9867 1.77 29.515 1.21 31.055L1.07 31.545C1.02333 31.685 1 31.8367 1 32C1 32.6533 1.12833 33.2367 1.385 33.75C1.64167 34.2633 1.98 34.695 2.4 35.045C2.82 35.395 3.29833 35.6517 3.835 35.815C4.395 36.0017 4.955 36.095 5.515 36.095C5.88833 36.095 6.33167 36.0483 6.845 35.955C7.35834 35.885 7.84833 35.7567 8.315 35.57C8.805 35.3833 9.21334 35.1383 9.54 34.835C9.86667 34.5317 10.03 34.1467 10.03 33.68C10.03 33.3767 10.0067 33.085 9.96 32.805C9.91333 32.5017 9.89 32.1983 9.89 31.895C9.89 31.3583 10.03 30.9967 10.31 30.81C10.59 30.6 10.975 30.495 11.465 30.495C12.0017 30.495 12.41 30.5883 12.69 30.775C12.9933 30.9617 13.2033 31.2067 13.32 31.51C13.46 31.79 13.5417 32.1167 13.565 32.49C13.6117 32.8633 13.6467 33.2367 13.67 33.61C13.7167 33.9833 13.775 34.3567 13.845 34.73C13.9383 35.08 14.1017 35.3833 14.335 35.64C14.685 36.0367 15.14 36.34 15.7 36.55C16.2833 36.76 16.8317 36.865 17.345 36.865C17.9283 36.865 19.0585 36.83 19.6419 36.55C20.1796 36.2919 20.1023 36.3323 20.5013 35.975C20.6083 36.1394 20.5904 36.1423 20.72 36.28C21.49 37.05 22.8733 37.13 24.6 37.13C25.1367 37.13 25.6733 37.0483 26.21 36.885C26.7467 36.745 27.2367 36.5233 27.68 36.22C28.1233 35.9167 28.485 35.5433 28.765 35.1C29.045 34.6333 29.185 34.0967 29.185 33.49C29.185 33 29.0917 32.545 28.905 32.125C28.7183 31.705 28.5083 31.2967 28.275 30.9C28.0417 30.48 27.8317 30.0717 27.645 29.675C27.4583 29.255 27.365 28.8 27.365 28.31C27.365 27.4233 27.54 26.7933 27.89 26.42C28.2633 26.0233 28.8233 25.825 29.57 25.825C29.78 25.825 30.0367 25.86 30.34 25.93C30.6667 25.9767 30.97 26.0583 31.25 26.175C31.53 26.2917 31.775 26.4433 31.985 26.63C32.195 26.7933 32.3 26.9917 32.3 27.225C32.3 27.785 32.2067 28.345 32.02 28.905C31.8567 29.4417 31.6583 29.99 31.425 30.55C31.215 31.11 31.0167 31.67 30.83 32.23C30.6667 32.79 30.585 33.35 30.585 33.91C30.585 34.6567 30.7133 35.275 30.97 35.765C31.2267 36.2317 31.565 36.5933 31.985 36.85C32.405 37.13 32.8833 37.3167 33.42 37.41C33.9567 37.5267 34.5167 37.585 35.1 37.585C35.8467 37.585 36.4883 37.4333 37.025 37.13C37.5617 36.85 37.9933 36.4767 38.32 36.01C38.6467 35.52 38.88 34.96 39.02 34.33C39.1833 33.7 39.265 33.035 39.265 32.335C39.265 31.705 39.1483 31.075 38.915 30.445C38.6817 29.815 38.425 29.185 38.145 28.555C37.865 27.925 37.6083 27.3067 37.375 26.7C37.1417 26.07 37.025 25.4517 37.025 24.845C37.025 24.2383 37.13 23.6433 37.34 23.06C37.55 22.4767 37.7833 21.905 38.04 21.345C38.32 20.7617 38.565 20.1783 38.775 19.595C38.985 19.0117 39.09 18.405 39.09 17.775C39.09 16.8417 38.985 16.0017 38.775 15.255C38.5883 14.485 38.285 13.8433 37.865 13.33C37.445 12.7933 36.8967 12.385 36.22 12.105C35.5433 11.8017 34.715 11.65 33.735 11.65C32.895 11.65 32.1717 11.9417 31.565 12.525C30.9817 13.1083 30.69 13.9833 30.69 15.15C30.69 15.7567 30.7483 16.235 30.865 16.585C30.9817 16.9117 31.11 17.2033 31.25 17.46C31.4133 17.7167 31.5533 17.9733 31.67 18.23C31.7867 18.4867 31.845 18.825 31.845 19.245C31.845 19.8983 31.7167 20.365 31.46 20.645C31.2267 20.925 30.7717 21.065 30.095 21.065C29.8383 21.065 29.5583 21.0533 29.255 21.03C28.9517 20.9833 28.66 20.9133 28.38 20.82C28.1233 20.7033 27.9017 20.5517 27.715 20.365C27.5517 20.155 27.47 19.875 27.47 19.525C27.47 19.0817 27.5167 18.6617 27.61 18.265L27.96 17.005C28.1 16.585 28.2167 16.165 28.31 15.745C28.4267 15.3017 28.485 14.8583 28.485 14.415C28.485 13.855 28.3567 13.4 28.1 13.05C27.8433 12.6767 27.4933 12.385 27.05 12.175C26.63 11.965 26.1283 11.825 25.545 11.755C24.985 11.6617 24.39 11.615 23.76 11.615C23.13 11.615 22.605 11.7317 22.185 11.965C21.765 12.1983 21.4267 12.5133 21.17 12.91C20.9367 13.2833 20.7617 13.715 20.645 14.205C20.5517 14.695 20.505 15.185 20.505 15.675C20.505 16.3517 20.5633 17.04 20.68 17.74C20.7967 18.4167 20.925 19.105 21.065 19.805C21.205 20.4817 21.3333 21.1583 21.45 21.835C21.5667 22.5117 21.625 23.1883 21.625 23.865C21.625 24.5883 21.52 25.3 21.31 26C21.1459 26.6155 20.9637 27.222 20.7635 27.8195C20.6453 27.5784 20.5208 27.3386 20.39 27.1C20.0167 26.3533 19.6317 25.6183 19.235 24.895C18.8617 24.1717 18.5817 23.4367 18.395 22.69C18.2317 22.0833 18.1383 21.4767 18.115 20.87C18.115 20.2633 18.1267 19.6567 18.15 19.05L18.29 17.23C18.3367 16.6 18.3483 15.9817 18.325 15.375C18.2783 14.4417 17.9633 13.695 17.38 13.135C16.7967 12.5517 16.085 12.1083 15.245 11.805C14.4283 11.4783 13.5533 11.2683 12.62 11.175ZM10.03 24.3C9.91333 24.2067 9.855 24.1017 9.855 23.985C9.855 23.6583 9.90167 23.2383 9.995 22.725C10.0883 22.2117 10.2283 21.71 10.415 21.22C10.6017 20.73 10.8233 20.31 11.08 19.96C11.3367 19.61 11.6283 19.435 11.955 19.435C12.2583 19.435 12.5033 19.61 12.69 19.96C12.9 20.31 13.0633 20.7183 13.18 21.185C13.2967 21.6517 13.3783 22.1183 13.425 22.585C13.4717 23.0517 13.495 23.4017 13.495 23.635C13.495 23.7983 13.4017 23.9383 13.215 24.055C13.0517 24.1717 12.8417 24.265 12.585 24.335C12.3517 24.405 12.1183 24.4633 11.885 24.51C11.6517 24.5333 11.4767 24.545 11.36 24.545H10.975L10.485 24.475C10.3217 24.4283 10.17 24.37 10.03 24.3Z" stroke="black" stroke-opacity="0.2" mask="url(#path-3-outside-1_8_18)"/>
<path d="M40.842 16.164C40.842 15.84 40.89 15.516 40.986 15.192C41.094 14.856 41.25 14.556 41.454 14.292C41.658 14.028 41.904 13.812 42.192 13.644C42.492 13.476 42.834 13.392 43.218 13.392C43.602 13.392 43.932 13.47 44.208 13.626C44.496 13.77 44.73 13.968 44.91 14.22C45.102 14.46 45.24 14.736 45.324 15.048C45.42 15.36 45.468 15.678 45.468 16.002C45.468 16.326 45.42 16.656 45.324 16.992C45.24 17.316 45.102 17.61 44.91 17.874C44.718 18.138 44.472 18.354 44.172 18.522C43.884 18.69 43.542 18.774 43.146 18.774C42.786 18.774 42.462 18.696 42.174 18.54C41.886 18.396 41.64 18.204 41.436 17.964C41.244 17.724 41.094 17.448 40.986 17.136C40.89 16.812 40.842 16.488 40.842 16.164Z" fill="#e34d0a"/>
</svg>
